<?xml version="1.0" encoding="UTF-8" standalone="no"?>
<svg
   height="128px"
   viewBox="0 0 128 128"
   width="128px"
   version="1.1"
   id="svg47"
   sodipodi:docname="org.gnome.Loupe.svg"
   xml:space="preserve"
   inkscape:version="1.3.2 (091e20ef0f, 2023-11-25, custom)"
   xmlns:inkscape="http://www.inkscape.org/namespaces/inkscape"
   xmlns:sodipodi="http://sodipodi.sourceforge.net/DTD/sodipodi-0.dtd"
   xmlns:xlink="http://www.w3.org/1999/xlink"
   xmlns="http://www.w3.org/2000/svg"
   xmlns:svg="http://www.w3.org/2000/svg"><defs
     id="defs47"><linearGradient
       xlink:href="#linearGradient1571"
       id="linearGradient1573"
       x1="12"
       y1="66"
       x2="116"
       y2="66"
       gradientUnits="userSpaceOnUse"
       gradientTransform="translate(-0.36997477)" /><linearGradient
       id="linearGradient1571"><stop
         style="stop-color:#a6a6a6;stop-opacity:1;"
         offset="0"
         id="stop1567" /><stop
         style="stop-color:#f2f2f2;stop-opacity:1;"
         offset="0.03567462"
         id="stop1575" /><stop
         style="stop-color:#a6a6a6;stop-opacity:1;"
         offset="0.07302466"
         id="stop1577" /><stop
         style="stop-color:#a6a6a6;stop-opacity:1;"
         offset="0.92681795"
         id="stop1579" /><stop
         style="stop-color:#f2f2f2;stop-opacity:1;"
         offset="0.96064132"
         id="stop1581" /><stop
         style="stop-color:#a6a6a6;stop-opacity:1;"
         offset="1"
         id="stop1569" /></linearGradient><linearGradient
       xlink:href="#linearGradient5391"
       id="linearGradient1175"
       x1="-84.747917"
       y1="44.995792"
       x2="-84.803833"
       y2="-22.560936"
       gradientUnits="userSpaceOnUse"
       gradientTransform="translate(169.0844,57.58056)" /><linearGradient
       id="linearGradient5391"><stop
         style="stop-color:#d3d7cf;stop-opacity:1"
         offset="0"
         id="stop5393" /><stop
         style="stop-color:#e0e3dd;stop-opacity:1"
         offset="1"
         id="stop5395" /></linearGradient><linearGradient
       x1="37.330212"
       y1="24.135145"
       x2="41.688969"
       y2="24.135145"
       id="linearGradient5419"
       xlink:href="#linearGradient5413"
       gradientUnits="userSpaceOnUse"
       gradientTransform="matrix(2.5365861,0,0,2.5365861,3.12195,-1.41464)" /><linearGradient
       id="linearGradient5413"><stop
         style="stop-color:#204a87;stop-opacity:1"
         offset="0"
         id="stop5415" /><stop
         style="stop-color:#204a87;stop-opacity:0"
         offset="1"
         id="stop5417" /></linearGradient><linearGradient
       x1="37.330212"
       y1="33.946251"
       x2="40.628307"
       y2="33.946251"
       id="linearGradient5427"
       xlink:href="#linearGradient5421"
       gradientUnits="userSpaceOnUse"
       gradientTransform="matrix(2.5365861,0,0,2.5365861,3.12195,-1.41464)" /><linearGradient
       id="linearGradient5421"><stop
         style="stop-color:#cc0000;stop-opacity:1"
         offset="0"
         id="stop5423" /><stop
         style="stop-color:#cc0000;stop-opacity:0"
         offset="1"
         id="stop5425" /></linearGradient></defs><sodipodi:namedview
     id="namedview47"
     pagecolor="#505050"
     bordercolor="#ffffff"
     borderopacity="1"
     inkscape:showpageshadow="0"
     inkscape:pageopacity="0"
     inkscape:pagecheckerboard="1"
     inkscape:deskcolor="#505050"
     inkscape:zoom="3.1992188"
     inkscape:cx="-5.1575091"
     inkscape:cy="115.49695"
     inkscape:window-width="1920"
     inkscape:window-height="1041"
     inkscape:window-x="0"
     inkscape:window-y="0"
     inkscape:window-maximized="1"
     inkscape:current-layer="svg47" /><clipPath
     id="a"><path
       d="m 2 2 h 124 v 124 h -124 z m 0 0"
       id="path1" /></clipPath><clipPath
     id="b"><path
       d="m 34.957031 2.382812 l 85.003907 22.777344 c 4.265624 1.144532 6.800781 5.53125 5.65625 9.796875 l -22.777344 85.003907 c -1.144532 4.265624 -5.53125 6.800781 -9.796875 5.65625 l -85.003907 -22.777344 c -4.265624 -1.144532 -6.800781 -5.53125 -5.65625 -9.796875 l 22.777344 -85.003907 c 1.144532 -4.265624 5.53125 -6.796874 9.796875 -5.65625 z m 0 0"
       id="path2" /></clipPath><linearGradient
     id="c"
     gradientUnits="userSpaceOnUse"><stop
       offset="0"
       stop-color="#ffa348"
       id="stop2" /><stop
       offset="0.474835"
       stop-color="#c061cb"
       id="stop3" /><stop
       offset="1"
       stop-color="#1c71d8"
       id="stop4" /></linearGradient><linearGradient
     id="d"
     gradientTransform="matrix(-1.375 0 0 1.133334 124.499995 -224.800098)"
     x1="31.003128"
     x2="71.043274"
     xlink:href="#c"
     y1="257.064087"
     y2="220.171326" /><clipPath
     id="e"><path
       d="m 20 20 h 88 v 68 h -88 z m 0 0"
       id="path4" /></clipPath><clipPath
     id="f"><path
       d="m 106 20 h -84 c -1.105469 0 -2 0.894531 -2 2 v 64 c 0 1.105469 0.894531 2 2 2 h 84 c 1.105469 0 2 -0.894531 2 -2 v -64 c 0 -1.105469 -0.894531 -2 -2 -2 z m 0 0"
       id="path5" /></clipPath><filter
     id="g"
     height="1"
     width="1"
     x="0"
     y="0"><feColorMatrix
       in="SourceGraphic"
       type="matrix"
       values="0 0 0 0 1 0 0 0 0 1 0 0 0 0 1 0 0 0 1 0"
       id="feColorMatrix5" /></filter><mask
     id="h"><g
       filter="url(#g)"
       id="g5"><rect
         fill-opacity="0.568457"
         height="128"
         width="128"
         id="rect5" /></g></mask><linearGradient
     id="i"
     gradientUnits="userSpaceOnUse"><stop
       offset="0"
       stop-color="#ffffff"
       id="stop5" /><stop
       offset="1"
       stop-color="#ffffff"
       stop-opacity="0"
       id="stop6" /></linearGradient><linearGradient
     id="j"
     gradientTransform="matrix(-0.707107 0.707107 0.707107 0.707107 109.999996 -173.999977)"
     x1="212.802719"
     x2="290.802734"
     xlink:href="#i"
     y1="161.293045"
     y2="161.293045" /><clipPath
     id="k"><rect
       height="152"
       width="192"
       id="rect6" /></clipPath><mask
     id="l"><g
       filter="url(#g)"
       id="g7"><rect
         fill-opacity="0.363132"
         height="128"
         width="128"
         id="rect7" /></g></mask><linearGradient
     id="m"
     gradientTransform="matrix(-0.707107 0.707107 0.707107 0.707107 110.999996 -177.999977)"
     x1="202.232544"
     x2="240.798187"
     xlink:href="#i"
     y1="172.831131"
     y2="172.831131" /><clipPath
     id="n"><rect
       height="152"
       width="192"
       id="rect8" /></clipPath><mask
     id="o"><g
       filter="url(#g)"
       id="g9"><rect
         fill-opacity="0.768678"
         height="128"
         width="128"
         id="rect9" /></g></mask><linearGradient
     id="p"
     gradientTransform="matrix(0 1.428571 -1.428571 0 427.285702 12.714302)"
     x1="24"
     x2="38"
     xlink:href="#i"
     y1="238"
     y2="238" /><clipPath
     id="q"><rect
       height="152"
       width="192"
       id="rect10" /></clipPath><clipPath
     id="r"><path
       d="m 22 42 h 60 v 61 h -60 z m 0 0"
       id="path10" /></clipPath><clipPath
     id="s"><path
       d="m 22.0625 72.179688 c 0 16.535156 13.402344 29.9375 29.9375 29.9375 s 29.9375 -13.402344 29.9375 -29.9375 c 0 -16.535157 -13.402344 -29.9375 -29.9375 -29.9375 s -29.9375 13.402343 -29.9375 29.9375 z m 0 0"
       id="path11" /></clipPath><linearGradient
     id="t"
     gradientTransform="matrix(-1.649999 0 0 1.36 139.400018 -271.759913)"
     x1="31.003128"
     x2="71.043274"
     xlink:href="#c"
     y1="257.064087"
     y2="220.171326" /><clipPath
     id="u"><path
       d="m 117.199219 22 h -100.800781 c -1.324219 0 -2.398438 1.074219 -2.398438 2.398438 v 76.800781 c 0 1.328125 1.074219 2.402343 2.398438 2.402343 h 100.800781 c 1.328125 0 2.402343 -1.074218 2.402343 -2.402343 v -76.800781 c 0 -1.324219 -1.074218 -2.398438 -2.402343 -2.398438 z m 0 0"
       id="path12" /></clipPath><mask
     id="v"><g
       filter="url(#g)"
       id="g12"><rect
         fill-opacity="0.568457"
         height="128"
         width="128"
         id="rect12" /></g></mask><linearGradient
     id="w"
     gradientTransform="matrix(-0.848528 0.848528 0.848528 0.848528 120.400036 -213.999794)"
     x1="212.802719"
     x2="290.802734"
     xlink:href="#i"
     y1="161.293045"
     y2="161.293045" /><clipPath
     id="x"><rect
       height="152"
       width="192"
       id="rect13" /></clipPath><mask
     id="y"><g
       filter="url(#g)"
       id="g14"><rect
         fill-opacity="0.363132"
         height="128"
         width="128"
         id="rect14" /></g></mask><linearGradient
     id="z"
     gradientTransform="matrix(-0.848528 0.848528 0.848528 0.848528 121.600035 -218.799791)"
     x1="202.232544"
     x2="240.798187"
     xlink:href="#i"
     y1="172.831131"
     y2="172.831131" /><clipPath
     id="A"><rect
       height="152"
       width="192"
       id="rect15" /></clipPath><clipPath
     id="B"><path
       d="m 22 42 h 60 v 61 h -60 z m 0 0"
       id="path15" /></clipPath><clipPath
     id="C"><path
       d="m 22.0625 72.179688 c 0 16.535156 13.402344 29.9375 29.9375 29.9375 s 29.9375 -13.402344 29.9375 -29.9375 c 0 -16.535157 -13.402344 -29.9375 -29.9375 -29.9375 s -29.9375 13.402343 -29.9375 29.9375 z m 0 0"
       id="path16" /></clipPath><mask
     id="D"><g
       filter="url(#g)"
       id="g16"><rect
         fill-opacity="0.768678"
         height="128"
         width="128"
         id="rect16" /></g></mask><linearGradient
     id="E"
     gradientTransform="matrix(0 1.714284 -1.714284 0 501.142633 10.057194)"
     x1="24"
     x2="38"
     xlink:href="#i"
     y1="238"
     y2="238" /><clipPath
     id="F"><rect
       height="152"
       width="192"
       id="rect17" /></clipPath><mask
     id="G"><g
       filter="url(#g)"
       id="g18"><rect
         fill-opacity="0.154"
         height="128"
         width="128"
         id="rect18" /></g></mask><clipPath
     id="H"><rect
       height="152"
       width="192"
       id="rect19" /></clipPath><mask
     id="I"><g
       filter="url(#g)"
       id="g20"><rect
         fill-opacity="0.154"
         height="128"
         width="128"
         id="rect20" /></g></mask><clipPath
     id="J"><rect
       height="152"
       width="192"
       id="rect21" /></clipPath><mask
     id="K"><g
       filter="url(#g)"
       id="g22"><rect
         fill-opacity="0.35"
         height="128"
         width="128"
         id="rect22" /></g></mask><radialGradient
     id="L"
     cx="-72"
     cy="190"
     gradientTransform="matrix(-1 0 0 1 -12 -123.882362)"
     gradientUnits="userSpaceOnUse"
     r="29.937637"><stop
       offset="0"
       stop-color="#ffffff"
       id="stop22" /><stop
       offset="0.271152"
       stop-color="#ffffff"
       stop-opacity="0.866667"
       id="stop23" /><stop
       offset="1"
       stop-color="#ffffff"
       stop-opacity="0"
       id="stop24" /></radialGradient><clipPath
     id="M"><rect
       height="152"
       width="192"
       id="rect24" /></clipPath><rect
     style="display:inline;fill:url(#linearGradient1573);fill-opacity:1;stroke:none;stroke-width:0.25;stroke-linecap:butt;stroke-linejoin:miter;stroke-miterlimit:4;stroke-dasharray:none;stroke-dashoffset:0;stroke-opacity:1;marker:none;marker-start:none;marker-mid:none;marker-end:none;paint-order:normal;enable-background:new"
     id="rect1711-5"
     width="104"
     height="100"
     x="11.630023"
     y="16"
     rx="8"
     ry="8" /><path
     d="m 20,12 h 88 c 4.41797,0 8,3.444261 8,7.692308 V 104.30769 C 116,108.55574 112.41797,112 108,112 H 20 c -4.417969,0 -8,-3.44426 -8,-7.69231 V 19.692308 C 12,15.444261 15.582031,12 20,12 Z m 0,0"
     fill="#f6f5f4"
     id="path25"
     style="stroke-width:0.980581" /><path
     d="m 106 20 h -84 c -1.105469 0 -2 0.894531 -2 2 v 64 c 0 1.105469 0.894531 2 2 2 h 84 c 1.105469 0 2 -0.894531 2 -2 v -64 c 0 -1.105469 -0.894531 -2 -2 -2 z m 0 0"
     fill="url(#d)"
     id="path26" /><g
     clip-path="url(#e)"
     id="g30"><g
       clip-path="url(#f)"
       id="g29"><g
         clip-path="url(#k)"
         mask="url(#h)"
         transform="matrix(1 0 0 1 -8 -16)"
         id="g27"><path
           d="m 40.34375 68.605469 l -43.839844 43.839843 c -3.125 3.125 -3.125 8.191407 0 11.3125 l 43.839844 43.84375 c 3.125 3.121094 8.1875 3.121094 11.3125 0 l 43.839844 -43.84375 c 3.125 -3.121093 3.125 -8.1875 0 -11.3125 l -43.839844 -43.839843 c -3.125 -3.125 -8.1875 -3.125 -11.3125 0 z m 0 0"
           fill="url(#j)"
           id="path27" /></g><g
         clip-path="url(#n)"
         mask="url(#l)"
         transform="matrix(1 0 0 1 -8 -16)"
         id="g28"><path
           d="m 69.34375 77.65625 l -43.839844 43.839844 c -3.125 3.125 -3.125 8.191406 0 11.316406 l 43.839844 43.839844 c 3.125 3.125 8.1875 3.125 11.3125 0 l 43.839844 -43.839844 c 3.125 -3.125 3.125 -8.191406 0 -11.316406 l -43.839844 -43.839844 c -3.125 -3.125 -8.1875 -3.125 -11.3125 0 z m 0 0"
           fill="url(#m)"
           id="path28" /></g></g></g><g
     clip-path="url(#q)"
     mask="url(#o)"
     transform="matrix(1 0 0 1 -8 -16)"
     id="g31"><path
       d="m 93 67 c -5.523438 0 -10 -4.476562 -10 -10 s 4.476562 -10 10 -10 s 10 4.476562 10 10 s -4.476562 10 -10 10 z m 0 0"
       fill="url(#p)"
       id="path30" /></g><g
     clip-path="url(#r)"
     id="g36"><g
       clip-path="url(#s)"
       id="g35"><path
         d="m 117.601562 22 h -101.601562 c -1.105469 0 -2 0.894531 -2 2 v 77.601562 c 0 1.101563 0.894531 2 2 2 h 101.601562 c 1.101563 0 2 -0.898437 2 -2 v -77.601562 c 0 -1.105469 -0.898437 -2 -2 -2 z m 0 0"
         fill="url(#t)"
         id="path31" /><g
         clip-path="url(#u)"
         id="g34"><g
           clip-path="url(#x)"
           mask="url(#v)"
           transform="matrix(1 0 0 1 -8 -16)"
           id="g32"><path
             d="m 37.941406 75.996094 l -54.871094 54.871094 c -3.121093 3.125 -3.121093 8.1875 0 11.3125 l 54.871094 54.871093 c 3.125 3.125 8.191406 3.125 11.316406 0 l 54.871094 -54.871093 c 3.125 -3.125 3.125 -8.1875 0 -11.3125 l -54.871094 -54.871094 c -3.125 -3.125 -8.191406 -3.125 -11.316406 0 z m 0 0"
             fill="url(#w)"
             id="path32" /></g><g
           clip-path="url(#A)"
           mask="url(#y)"
           transform="matrix(1 0 0 1 -8 -16)"
           id="g33"><path
             d="m 72.742188 86.855469 l -54.871094 54.871093 c -3.125 3.125 -3.125 8.191407 0 11.316407 l 54.871094 54.871093 c 3.125 3.125 8.191406 3.125 11.316406 0 l 54.871094 -54.871093 c 3.121093 -3.125 3.121093 -8.191407 0 -11.316407 l -54.871094 -54.871093 c -3.125 -3.121094 -8.191406 -3.121094 -11.316406 0 z m 0 0"
             fill="url(#z)"
             id="path33" /></g></g></g></g><g
     clip-path="url(#B)"
     id="g39"><g
       clip-path="url(#C)"
       id="g38"><g
         clip-path="url(#F)"
         mask="url(#D)"
         transform="matrix(1 0 0 1 -8 -16)"
         id="g37"><path
           d="m 100 75.199219 c -6.628906 0 -12 -5.371094 -12 -12 c 0 -6.625 5.371094 -12 12 -12 s 12 5.375 12 12 c 0 6.628906 -5.371094 12 -12 12 z m 0 0"
           fill="url(#E)"
           id="path36" /></g></g></g><g
     clip-path="url(#H)"
     mask="url(#G)"
     transform="matrix(1 0 0 1 -8 -16)"
     id="g40"><path
       d="m 11.890625 268.550308 l 15.457031 -15.457031"
       fill="none"
       stroke="#ffffff"
       stroke-linecap="round"
       stroke-width="1.63784"
       transform="matrix(1 0 0 1 2 -137.882339)"
       id="path39" /></g><g
     fill="none"
     id="g44"><path
       d="m 30 96.117188 l -8 8"
       stroke="#241f31"
       stroke-width="6"
       id="path40" /><path
       d="m 30 94.117188 l -8 8"
       stroke="#3d3846"
       stroke-width="6"
       id="path41" /><path
       d="m 22 104.117188 l -14 14"
       stroke="#5e5c64"
       stroke-linecap="round"
       stroke-width="12"
       id="path42" /><path
       d="m 22 102.117188 l -14 14"
       stroke="#77767b"
       stroke-linecap="round"
       stroke-width="12"
       id="path43" /><path
       d="m 82.117188 74.117187 c 0 16.632813 -13.484375 30.117188 -30.117188 30.117188 c -16.632812 0 -30.117187 -13.484375 -30.117187 -30.117188 c 0 -16.632812 13.484375 -30.117187 30.117187 -30.117187 c 16.632813 0 30.117188 13.484375 30.117188 30.117187 z m 0 0"
       stroke="#241f31"
       stroke-linejoin="round"
       stroke-width="4"
       id="path44" /></g><g
     clip-path="url(#J)"
     mask="url(#I)"
     transform="matrix(1 0 0 1 -8 -16)"
     id="g45"><path
       d="m -170.584656 386.756477 l 16 -16"
       fill="none"
       stroke="#ffffff"
       stroke-linecap="round"
       stroke-width="2"
       transform="matrix(1 0 0 1 183.584656 -255.63929)"
       id="path45" /></g><g
     clip-path="url(#M)"
     mask="url(#K)"
     transform="matrix(1 0 0 1 -8 -16)"
     id="g46"><path
       d="m 30.0625 88.179688 c 0 16.535156 13.402344 29.9375 29.9375 29.9375 s 29.9375 -13.402344 29.9375 -29.9375 c 0 -16.535157 -13.402344 -29.9375 -29.9375 -29.9375 s -29.9375 13.402343 -29.9375 29.9375 z m 0 0"
       fill="url(#L)"
       id="path46" /></g><path
     d="m 82.117188 72.117187 c 0 16.632813 -13.484375 30.117188 -30.117188 30.117188 c -16.632812 0 -30.117187 -13.484375 -30.117187 -30.117188 c 0 -16.632812 13.484375 -30.117187 30.117187 -30.117187 c 16.632813 0 30.117188 13.484375 30.117188 30.117187 z m 0 0"
     fill="none"
     stroke="#5e5c64"
     stroke-linejoin="round"
     stroke-width="4"
     id="path47" /></svg>
